# Blender v2.82 (sub 7) OBJ File: ''
# www.blender.org

mtllib untitled.mtl

o Cube.001
v 1.000000 1.000000 -1.000000
v -1.000000 1.000000 -2.899999
v -1.000000 1.000000 1.000000
v 1.000000 1.000000 1.000000
v 1.000000 -1.000000 1.000000
v -1.000000 -1.000000 1.000000
v -1.000000 -1.000000 -1.000000
vt 0.625000 0.500000
vt 0.875000 0.750000
vt 0.625000 0.750000
vt 0.375000 1.000000
vt 0.375000 0.750000
vt 0.625000 0.000000
vt 0.375000 0.250000
vt 0.375000 0.000000
vt 0.125000 0.500000
vt 0.125000 0.750000
vt 0.375000 0.500000
vt 0.875000 0.500000
vt 0.625000 0.250000
vt 0.625000 1.000000
vn 0.0000 1.0000 0.0000
vn 0.0000 -0.0000 1.0000
vn -1.0000 0.0000 0.0000
vn -0.3360 -0.8799 0.3360
vn 0.0000 -1.0000 -0.0000
vn 1.0000 -0.0000 0.0000
vn 0.2588 -0.2588 -0.9306
vn 0.3597 -0.3597 -0.8610
vn 0.0000 0.0000 -1.0000
vn 0.5672 -0.5672 -0.5971
vn -0.5436 -0.6395 0.5436
usemtl Material.001
s 1
f 1/1/1 3/2/1 4/3/1
f 4/3/2 6/4/2 5/5/2
f 3/6/3 7/7/3 6/8/3

g part2

v 1.000000 -2.700000 -1.000000

f 7/9/4 5/5/4 6/10/5
f 1/1/6 5/5/6 8/11/6
f 7/7/7 1/1/8 8/11/9
f 1/1/6 4/3/6 5/5/6
f 1/1/1 2/12/1 3/2/1
f 7/7/7 2/13/10 1/1/8
f 3/6/3 2/13/3 7/7/3
f 7/9/4 8/11/11 5/5/4
f 4/3/2 3/14/2 6/4/2
